<mxfile host="app.diagrams.net" modified="2024-05-12T09:12:56.087Z" agent="Mozilla/5.0 (Windows NT 10.0; Win64; x64) AppleWebKit/537.36 (KHTML, like Gecko) Chrome/122.0.0.0 YaBrowser/24.4.0.0 Safari/537.36" etag="xXzYgWvWve76Q8aZ0Hdv" version="24.4.0" type="device">
  <diagram id="C5RBs43oDa-KdzZeNtuy" name="Page-1">
    <mxGraphModel dx="1002" dy="567" grid="1" gridSize="10" guides="1" tooltips="1" connect="1" arrows="1" fold="1" page="1" pageScale="1" pageWidth="827" pageHeight="1169" math="0" shadow="0">
      <root>
        <mxCell id="WIyWlLk6GJQsqaUBKTNV-0" />
        <mxCell id="WIyWlLk6GJQsqaUBKTNV-1" parent="WIyWlLk6GJQsqaUBKTNV-0" />
        <mxCell id="yoHx7YpiLTaQQFHglm-b-0" value="" style="ellipse;whiteSpace=wrap;html=1;" vertex="1" parent="WIyWlLk6GJQsqaUBKTNV-1">
          <mxGeometry x="289" y="20" width="250" height="80" as="geometry" />
        </mxCell>
        <mxCell id="yoHx7YpiLTaQQFHglm-b-1" value="Начало" style="text;html=1;align=center;verticalAlign=middle;whiteSpace=wrap;rounded=0;" vertex="1" parent="WIyWlLk6GJQsqaUBKTNV-1">
          <mxGeometry x="349" y="45" width="140" height="30" as="geometry" />
        </mxCell>
        <mxCell id="yoHx7YpiLTaQQFHglm-b-2" value="" style="endArrow=classic;html=1;rounded=0;" edge="1" parent="WIyWlLk6GJQsqaUBKTNV-1">
          <mxGeometry width="50" height="50" relative="1" as="geometry">
            <mxPoint x="413.5" y="150" as="sourcePoint" />
            <mxPoint x="413.5" y="150" as="targetPoint" />
            <Array as="points">
              <mxPoint x="413.5" y="100" />
            </Array>
          </mxGeometry>
        </mxCell>
        <mxCell id="yoHx7YpiLTaQQFHglm-b-3" value="" style="rhombus;whiteSpace=wrap;html=1;" vertex="1" parent="WIyWlLk6GJQsqaUBKTNV-1">
          <mxGeometry x="259" y="280" width="300" height="80" as="geometry" />
        </mxCell>
        <mxCell id="yoHx7YpiLTaQQFHglm-b-4" value="user.IsPremium == true" style="text;html=1;align=center;verticalAlign=middle;whiteSpace=wrap;rounded=0;" vertex="1" parent="WIyWlLk6GJQsqaUBKTNV-1">
          <mxGeometry x="319" y="305" width="180" height="30" as="geometry" />
        </mxCell>
        <mxCell id="yoHx7YpiLTaQQFHglm-b-5" value="" style="endArrow=none;html=1;rounded=0;" edge="1" parent="WIyWlLk6GJQsqaUBKTNV-1">
          <mxGeometry width="50" height="50" relative="1" as="geometry">
            <mxPoint x="209" y="320" as="sourcePoint" />
            <mxPoint x="259" y="320" as="targetPoint" />
          </mxGeometry>
        </mxCell>
        <mxCell id="yoHx7YpiLTaQQFHglm-b-7" value="" style="endArrow=classic;html=1;rounded=0;" edge="1" parent="WIyWlLk6GJQsqaUBKTNV-1">
          <mxGeometry width="50" height="50" relative="1" as="geometry">
            <mxPoint x="209" y="320" as="sourcePoint" />
            <mxPoint x="209" y="370" as="targetPoint" />
          </mxGeometry>
        </mxCell>
        <mxCell id="yoHx7YpiLTaQQFHglm-b-8" value="" style="endArrow=none;html=1;rounded=0;" edge="1" parent="WIyWlLk6GJQsqaUBKTNV-1">
          <mxGeometry width="50" height="50" relative="1" as="geometry">
            <mxPoint x="559" y="319.5" as="sourcePoint" />
            <mxPoint x="609" y="319.5" as="targetPoint" />
          </mxGeometry>
        </mxCell>
        <mxCell id="yoHx7YpiLTaQQFHglm-b-9" value="" style="endArrow=classic;html=1;rounded=0;" edge="1" parent="WIyWlLk6GJQsqaUBKTNV-1">
          <mxGeometry width="50" height="50" relative="1" as="geometry">
            <mxPoint x="609" y="320" as="sourcePoint" />
            <mxPoint x="609" y="370" as="targetPoint" />
          </mxGeometry>
        </mxCell>
        <mxCell id="yoHx7YpiLTaQQFHglm-b-10" value="Да" style="text;html=1;align=center;verticalAlign=middle;whiteSpace=wrap;rounded=0;" vertex="1" parent="WIyWlLk6GJQsqaUBKTNV-1">
          <mxGeometry x="209" y="290" width="60" height="30" as="geometry" />
        </mxCell>
        <mxCell id="yoHx7YpiLTaQQFHglm-b-11" value="Нет" style="text;html=1;align=center;verticalAlign=middle;whiteSpace=wrap;rounded=0;" vertex="1" parent="WIyWlLk6GJQsqaUBKTNV-1">
          <mxGeometry x="559" y="290" width="60" height="30" as="geometry" />
        </mxCell>
        <mxCell id="yoHx7YpiLTaQQFHglm-b-13" value="foreach (User user in users)" style="shape=hexagon;perimeter=hexagonPerimeter2;whiteSpace=wrap;html=1;fixedSize=1;size=30;" vertex="1" parent="WIyWlLk6GJQsqaUBKTNV-1">
          <mxGeometry x="249" y="150" width="331" height="80" as="geometry" />
        </mxCell>
        <mxCell id="yoHx7YpiLTaQQFHglm-b-14" value="" style="endArrow=classic;html=1;rounded=0;" edge="1" parent="WIyWlLk6GJQsqaUBKTNV-1">
          <mxGeometry width="50" height="50" relative="1" as="geometry">
            <mxPoint x="408.5" y="280" as="sourcePoint" />
            <mxPoint x="408.5" y="280" as="targetPoint" />
            <Array as="points">
              <mxPoint x="408.5" y="230" />
            </Array>
          </mxGeometry>
        </mxCell>
        <mxCell id="yoHx7YpiLTaQQFHglm-b-16" value="&lt;font style=&quot;font-size: 9px;&quot;&gt;user.GreetingPremiumUser(user.Name,user.Login)&lt;/font&gt;" style="rounded=0;whiteSpace=wrap;html=1;" vertex="1" parent="WIyWlLk6GJQsqaUBKTNV-1">
          <mxGeometry x="109" y="370" width="210" height="60" as="geometry" />
        </mxCell>
        <mxCell id="yoHx7YpiLTaQQFHglm-b-17" value="&lt;font style=&quot;font-size: 9px;&quot;&gt;user.ShowAds()&lt;/font&gt;" style="rounded=0;whiteSpace=wrap;html=1;" vertex="1" parent="WIyWlLk6GJQsqaUBKTNV-1">
          <mxGeometry x="509" y="370" width="210" height="60" as="geometry" />
        </mxCell>
        <mxCell id="yoHx7YpiLTaQQFHglm-b-18" value="" style="endArrow=none;html=1;rounded=0;" edge="1" parent="WIyWlLk6GJQsqaUBKTNV-1">
          <mxGeometry width="50" height="50" relative="1" as="geometry">
            <mxPoint x="208" y="460" as="sourcePoint" />
            <mxPoint x="208" y="430" as="targetPoint" />
          </mxGeometry>
        </mxCell>
        <mxCell id="yoHx7YpiLTaQQFHglm-b-19" value="" style="endArrow=none;html=1;rounded=0;" edge="1" parent="WIyWlLk6GJQsqaUBKTNV-1">
          <mxGeometry width="50" height="50" relative="1" as="geometry">
            <mxPoint x="610" y="460" as="sourcePoint" />
            <mxPoint x="610" y="430" as="targetPoint" />
          </mxGeometry>
        </mxCell>
        <mxCell id="yoHx7YpiLTaQQFHglm-b-20" value="" style="endArrow=none;html=1;rounded=0;" edge="1" parent="WIyWlLk6GJQsqaUBKTNV-1">
          <mxGeometry width="50" height="50" relative="1" as="geometry">
            <mxPoint x="80" y="460" as="sourcePoint" />
            <mxPoint x="610" y="460" as="targetPoint" />
          </mxGeometry>
        </mxCell>
        <mxCell id="yoHx7YpiLTaQQFHglm-b-21" value="" style="endArrow=none;html=1;rounded=0;" edge="1" parent="WIyWlLk6GJQsqaUBKTNV-1">
          <mxGeometry width="50" height="50" relative="1" as="geometry">
            <mxPoint x="80" y="460" as="sourcePoint" />
            <mxPoint x="80" y="190" as="targetPoint" />
          </mxGeometry>
        </mxCell>
        <mxCell id="yoHx7YpiLTaQQFHglm-b-22" value="" style="endArrow=classic;html=1;rounded=0;" edge="1" parent="WIyWlLk6GJQsqaUBKTNV-1">
          <mxGeometry width="50" height="50" relative="1" as="geometry">
            <mxPoint x="80" y="190" as="sourcePoint" />
            <mxPoint x="249" y="190" as="targetPoint" />
          </mxGeometry>
        </mxCell>
        <mxCell id="yoHx7YpiLTaQQFHglm-b-25" value="" style="endArrow=none;html=1;rounded=0;" edge="1" parent="WIyWlLk6GJQsqaUBKTNV-1">
          <mxGeometry width="50" height="50" relative="1" as="geometry">
            <mxPoint x="750" y="490" as="sourcePoint" />
            <mxPoint x="750" y="190" as="targetPoint" />
          </mxGeometry>
        </mxCell>
        <mxCell id="yoHx7YpiLTaQQFHglm-b-26" value="" style="endArrow=none;html=1;rounded=0;" edge="1" parent="WIyWlLk6GJQsqaUBKTNV-1">
          <mxGeometry width="50" height="50" relative="1" as="geometry">
            <mxPoint x="580" y="189.5" as="sourcePoint" />
            <mxPoint x="750" y="190" as="targetPoint" />
          </mxGeometry>
        </mxCell>
        <mxCell id="yoHx7YpiLTaQQFHglm-b-27" value="" style="endArrow=none;html=1;rounded=0;" edge="1" parent="WIyWlLk6GJQsqaUBKTNV-1">
          <mxGeometry width="50" height="50" relative="1" as="geometry">
            <mxPoint x="410" y="490.5" as="sourcePoint" />
            <mxPoint x="750" y="490" as="targetPoint" />
          </mxGeometry>
        </mxCell>
        <mxCell id="yoHx7YpiLTaQQFHglm-b-29" value="" style="endArrow=classic;html=1;rounded=0;" edge="1" parent="WIyWlLk6GJQsqaUBKTNV-1">
          <mxGeometry width="50" height="50" relative="1" as="geometry">
            <mxPoint x="408.5" y="490" as="sourcePoint" />
            <mxPoint x="408.5" y="540" as="targetPoint" />
          </mxGeometry>
        </mxCell>
        <mxCell id="yoHx7YpiLTaQQFHglm-b-30" value="" style="ellipse;whiteSpace=wrap;html=1;" vertex="1" parent="WIyWlLk6GJQsqaUBKTNV-1">
          <mxGeometry x="284" y="540" width="250" height="80" as="geometry" />
        </mxCell>
        <mxCell id="yoHx7YpiLTaQQFHglm-b-31" value="Конец" style="text;html=1;align=center;verticalAlign=middle;whiteSpace=wrap;rounded=0;" vertex="1" parent="WIyWlLk6GJQsqaUBKTNV-1">
          <mxGeometry x="344" y="565" width="140" height="30" as="geometry" />
        </mxCell>
      </root>
    </mxGraphModel>
  </diagram>
</mxfile>
